<svg width="480" height="75" viewBox="0 0 48 75" fill="none" xmlns="http://www.w3.org/2000/svg"><path fill-rule="evenodd" clip-rule="evenodd" d="M0 8.268a8.268 8.268 0 0 1 14.274 -5.682q0.083 0.078 0.164 0.16l22.88 22.88a1.5 1.5 0 0 0 2.122 0l1.996 -1.996a8.268 8.268 0 0 1 11.692 11.693l-8.72 8.72a8.27 8.27 0 0 1 -9.941 1.338 8.3 8.3 0 0 1 -2.49 -1.712L18.242 29.935c-0.63 -0.63 -1.708 -0.184 -1.708 0.707v35.5a8.268 8.268 0 0 1 -16.535 0z" fill="#232323"/><path d="M60 8.268a8.268 8.268 0 0 1 16.535 0v57.874a8.268 8.268 0 0 1 -16.535 0z" fill="#941120"/><path d="M76.535 8.268a8.268 8.268 0 1 1 -16.535 0 8.268 8.268 0 0 1 16.535 0" fill="#232323"/><path d="M76.535 66.142a8.268 8.268 0 1 1 -16.535 0 8.268 8.268 0 0 1 16.535 0" fill="#232323"/></svg>